<?xml version="1.0" encoding="utf-8"?>
<!-- Generator: Adobe Illustrator 19.0.0, SVG Export Plug-In . SVG Version: 6.00 Build 0)  -->
<svg version="1.1" id="Layer_1" xmlns="http://www.w3.org/2000/svg" xmlns:xlink="http://www.w3.org/1999/xlink" x="0px" y="0px"
	 viewBox="0 0 1000 1000" style="enable-background:new 0 0 1000 1000;" xml:space="preserve">
<style type="text/css">
	.st0{fill:#E5AF90;}
	.st1{opacity:0.1;clip-path:url(#SVGID_2_);fill:url(#XMLID_2_);enable-background:new    ;}
	.st2{fill:url(#XMLID_3_);}
	.st3{opacity:8.000000e-002;clip-path:url(#SVGID_4_);enable-background:new    ;}
	.st4{opacity:8.000000e-002;clip-path:url(#SVGID_6_);enable-background:new    ;}
	.st5{opacity:8.000000e-002;clip-path:url(#SVGID_8_);enable-background:new    ;}
	.st6{opacity:8.000000e-002;clip-path:url(#SVGID_10_);enable-background:new    ;}
	.st7{opacity:8.000000e-002;clip-path:url(#SVGID_12_);enable-background:new    ;}
	.st8{opacity:8.000000e-002;clip-path:url(#SVGID_14_);enable-background:new    ;}
	.st9{opacity:8.000000e-002;clip-path:url(#SVGID_16_);enable-background:new    ;}
	.st10{opacity:0.9;clip-path:url(#SVGID_18_);enable-background:new    ;}
	.st11{opacity:0.2;}
	.st12{fill:#FFFFFF;}
	.st13{fill:url(#XMLID_4_);}
	.st14{opacity:0.11;fill:#3C2415;enable-background:new    ;}
	.st15{opacity:0.1;fill:#3C2415;enable-background:new    ;}
	.st16{opacity:0.12;fill:#3C2415;enable-background:new    ;}
	.st17{opacity:0.2;fill:url(#XMLID_5_);enable-background:new    ;}
	.st18{fill:#EAB498;}
	.st19{fill:#CC9C80;}
	.st20{fill:#F7C4AB;}
	.st21{opacity:0.1;clip-path:url(#SVGID_20_);fill:url(#XMLID_6_);enable-background:new    ;}
	.st22{fill:#CC926E;}
	.st23{opacity:0.3;fill:url(#XMLID_7_);enable-background:new    ;}
	.st24{opacity:0.3;fill:url(#XMLID_8_);enable-background:new    ;}
	.st25{display:none;}
</style>
<g id="Glasses">
	
		<linearGradient id="XMLID_7_" gradientUnits="userSpaceOnUse" x1="700.1436" y1="456.1472" x2="686.8768" y2="822.7883" gradientTransform="matrix(1 0 0 -1 0 1000)">
		<stop  offset="1.307457e-006" style="stop-color:#FFFFFF"/>
		<stop  offset="1" style="stop-color:#27AAE1"/>
	</linearGradient>
	<path id="XMLID_426_" class="st23" d="M761,469c0.7,2.2,1.3,5.7,0.7,16.1c-0.2,3-0.3,4.4-0.5,6.1c0,0-1.6,15.3-9.5,35.7
		c-0.5,1.2-1.3,3.4-3.3,5.6c-0.7,0.7-1.9,2.2-4.8,3.7c-4.7,2.4-8.5,3.6-10.3,4.2c-4.1,1.6-6.3,2.5-8.8,3.3c-5.7,1.8-14.6,4-27.5,5
		c-14.9,0.9-23.2,1.8-33.1-1.2c-5.5-1.7-9.3-4-11.7-6.2c-9-7.9-13-18-14.6-24.5c-3.5-13.9-3.5-23.5-3.6-25.8
		c-0.5-8.9,1.4-12,2.5-13.3c1.5-1.9,3.7-3,5.5-3.9c2.9-1.5,5.5-2.1,7.3-2.3c12.4-2.4,22.9-5,31-6.4c25.4-4.6,20.7-2.1,42.8-3.4
		c0,0,8.2-1.9,28-0.2C754.3,461.8,758.9,462.8,761,469z"/>
	
		<linearGradient id="XMLID_8_" gradientUnits="userSpaceOnUse" x1="504.3042" y1="449.0609" x2="491.0376" y2="815.7019" gradientTransform="matrix(1 0 0 -1 0 1000)">
		<stop  offset="1.307457e-006" style="stop-color:#FFFFFF"/>
		<stop  offset="1" style="stop-color:#27AAE1"/>
	</linearGradient>
	<path id="XMLID_425_" class="st24" d="M420.1,476c-1.5,1.7-3.2,4.4-4.7,12.5c-1,5.3-1.6,11-1.3,20.9c0,0,0.5,10.7,4.9,27.8
		c0.5,2,1.4,5.1,4.1,8c2.5,2.7,5.4,4,8.9,5.2c9.1,3.3,16.7,4.5,20.4,5.1c8.6,1.3,12.9,1.9,17.5,2.3c10.3,0.8,23.8,1.7,42,0.6
		c18.7-1.1,28.3-1.8,39-7.3c5.9-3,10-6.4,13-8.8c10.9-9,16.9-18.6,19.9-24.5c6.5-12.7,7-22.4,7-25c0.3-9.8-2.5-13.3-3.9-14.8
		c-2.2-2.2-5.1-3.3-7.5-4.3c-3.9-1.6-7.4-2.1-9.8-2.4c-16.5-1.9-30.7-2.9-41.6-3.5c-34.2-1.9-27.8,0.9-57.3-0.8
		c0,0-10.8-0.6-36.1,2.7C430.6,470.2,424.4,471.2,420.1,476z"/>
	<path id="XMLID_424_" d="M758.5,505.9c4.1-11.6,4.8-21.2,4.7-27.4c-0.1-12.8-3.4-15.9-4.3-16.7c-1.7-1.5-3.6-2.1-15.8-2.6
		c-11.6-0.5-20.4-0.4-26.5-0.3c-9.3,0.2-14.4,0.5-22,1.2c-3,0.2-14.7,1.2-30.2,3.9c0,0-11.1,1.9-24.5,7.8c-2.6,1.1-5,2.9-6.8,5.7
		c-0.2,0.3-0.4,0.7-0.6,1c0-0.2,0-0.3,0-0.5c-6.3-0.5-13.3-0.7-20.9-0.5c-7,0.2-13.4,0.8-19.2,1.6c-0.2-0.7-0.4-1.4-0.6-2.1
		c-4.2-2.1-10.6-4.8-18.8-6.8c-5-1.2-9-1.9-11.5-2.1c-28.7-2.6-65.2-3.7-65.2-3.7s-28.8-0.8-64.1,3.1c-2.7,0.3-8.9,1.1-13.6,5.7
		c-3.3,3.3-4.6,7.3-5.2,9.9c-10.7-2.6-21.5-5.2-32.2-7.8c-0.1-0.2-0.1-0.4-0.2-0.5c-0.5-1.3-1.5-2.3-2.7-2.8
		c-13.6-5.4-27.8-10.8-42.5-16c-15.9-5.6-31.3-10.7-46.3-15.3c-0.7-0.2-1.5-0.3-2.3-0.1c-1.1-0.4-3.7-1.1-7.1-1
		c5.6,1.9,11.8,4.6,18,8.7c4.4,3.1,8.3,6.4,11.6,9.8c9.6,4.1,19.8,8.9,30.4,14.4c11.3,5.8,21.6,11.7,30.6,17.6c1.6,1,3.5,1.2,5,0.4
		c1.3-0.7,2.9-1.9,4.2-3.8c10.1,3.1,20.3,6.2,30.5,9.7c0.7,4.7,1.4,10,2.4,16.2c0.2,1.2,1.2,1.1,1.2,0c0-7.5,0.5-13,1.1-16.4
		c1.6-8.6,2.5-12.8,5.7-16.6c3.8-4.6,9.1-6.3,13-7.3c20.1-4.9,55.3-3.4,64.1-3.1c0,0,57,2,72.5,5.2c4.6,0.9,9.3,3,11,3.7
		c4.9,2.2,5.9,3.3,6.3,3.8c1.2,1.6,2.2,4.3,0.9,15.7c-1.5,12.1-4.1,21-3.6,21.2c0.7,0.3,7.5-15,8.4-28.6c0.1-1.4,0.1-2.7,0.1-4
		c4.4-1.8,11-3.8,19.3-4.1c7.5-0.2,13.8,1,18.2,2.2c-1,9,1.3,17.8,2.2,21.1c2.3,8.3,5.2,16.2,5.7,16.1s-2.5-7.6-3.1-18.6
		c-0.6-10.3-0.9-16.5,3.1-21.9c4.8-6.5,13.9-8.9,25-11.9c2.3-0.6,4.1-1,5.6-1.3c8.5-1.8,19.8-3.2,48.4-4.5c8.3-0.4,16.7-0.2,25-0.6
		c6.4-0.2,10.7-0.5,13.8,2.4c2.8,2.6,3.3,6.4,3.4,13.7C760.3,485.7,760,494.9,758.5,505.9z"/>
	<path id="XMLID_423_" d="M757.9,461c-9.2-2.8-18.5-5.7-27.7-8.5c-0.3,1.5-0.7,2.9-1,4.4c5.5,1.5,11,3,16.5,4.5
		c1.8,0,4.3,0.2,7.2,0.7c3.9,0.7,6.6,1.7,6.9,1.1C759.9,462.9,759.6,462.4,757.9,461z"/>
</g>
</svg>