<?xml version="1.0" encoding="utf-8"?>
<!-- Generator: Adobe Illustrator 19.0.0, SVG Export Plug-In . SVG Version: 6.00 Build 0)  -->
<svg version="1.1" id="Layer_1" xmlns="http://www.w3.org/2000/svg" xmlns:xlink="http://www.w3.org/1999/xlink" x="0px" y="0px"
	 viewBox="0 0 1000 1000" style="enable-background:new 0 0 1000 1000;" xml:space="preserve">
<style type="text/css">
	.st0{fill:#E5AF90;}
	.st1{opacity:0.1;clip-path:url(#SVGID_2_);fill:url(#XMLID_2_);enable-background:new    ;}
	.st2{fill:url(#XMLID_3_);}
	.st3{opacity:8.000000e-002;clip-path:url(#SVGID_4_);enable-background:new    ;}
	.st4{opacity:8.000000e-002;clip-path:url(#SVGID_6_);enable-background:new    ;}
	.st5{opacity:8.000000e-002;clip-path:url(#SVGID_8_);enable-background:new    ;}
	.st6{opacity:8.000000e-002;clip-path:url(#SVGID_10_);enable-background:new    ;}
	.st7{opacity:8.000000e-002;clip-path:url(#SVGID_12_);enable-background:new    ;}
	.st8{opacity:8.000000e-002;clip-path:url(#SVGID_14_);enable-background:new    ;}
	.st9{opacity:8.000000e-002;clip-path:url(#SVGID_16_);enable-background:new    ;}
	.st10{opacity:0.9;clip-path:url(#SVGID_18_);enable-background:new    ;}
	.st11{opacity:0.2;}
	.st12{fill:#FFFFFF;}
	.st13{fill:url(#XMLID_4_);}
	.st14{opacity:0.11;fill:#3C2415;enable-background:new    ;}
	.st15{opacity:0.1;fill:#3C2415;enable-background:new    ;}
	.st16{opacity:0.12;fill:#3C2415;enable-background:new    ;}
	.st17{opacity:0.2;fill:url(#XMLID_5_);enable-background:new    ;}
	.st18{fill:#EAB498;}
	.st19{fill:#CC9C80;}
	.st20{fill:#F7C4AB;}
	.st21{opacity:0.1;clip-path:url(#SVGID_20_);fill:url(#XMLID_6_);enable-background:new    ;}
	.st22{fill:#CC926E;}
	.st23{opacity:0.3;fill:url(#XMLID_7_);enable-background:new    ;}
	.st24{opacity:0.3;fill:url(#XMLID_8_);enable-background:new    ;}
	.st25{display:none;}
</style>
<g id="Ear">
	<path id="XMLID_428_" class="st18" d="M327.1,481.9c0-0.1-0.1-0.3-0.2-0.4c-3.9-7.2-12.4-21.3-28.4-32.5
		c-14.3-9.4-27.9-11.7-35.7-12.4c-0.4,0-0.8,0-1.1,0.2c-1.1,0.5-2.7,1.5-4.2,3c-2.2,2.2-3,4.5-3.3,5.7c-0.1,0.2-0.1,0.4,0,0.6
		c1.2,6.2,3.9,16.2,9,27.8c3.5,8,5,9.9,14.6,29.6c8.3,16.9,12.5,25.3,13.7,28.8c0.6,1.7,4.8,13.4,11.3,25.9c1.5,2.9,3.5,6.8,7.8,9.3
		c4,2.4,6.9,1.7,12,3.2c2.9,0.9,6.7,2.5,10.8,5.9c1.2,1,3,0.2,3.1-1.3c1-16.2,0.8-35.2-2-56.3C332.6,505.4,330,492.9,327.1,481.9z"
		/>
	<path id="XMLID_429_" class="st19" d="M315.8,547.7c2.2-1-4.3-19.2-5-21.3c-1.6-4.6-2.4-6.8-4-9.8c-3-5.6-5-6.6-5.3-9.8
		c-0.4-4.8,3.7-6,4.8-10.8c1.4-6.6-4.5-13-13.5-22.5c-7.7-8.2-14.5-12.4-16.8-13.8c-3.5-2.1-6.8-3.6-9.5-4.7
		c-0.9-0.3-1.7,0.4-1.5,1.3c2.1,8.4,5,14.8,7.5,19.4c5.3,9.9,9.1,11.9,15.3,23c5,8.8,3.7,9.6,9,20.5
		C303.8,533.8,313.7,548.6,315.8,547.7z"/>
</g>
</svg>