<?xml version="1.0" encoding="utf-8"?>
<!-- Generator: Adobe Illustrator 19.0.0, SVG Export Plug-In . SVG Version: 6.00 Build 0)  -->
<svg version="1.1" id="Layer_1" xmlns="http://www.w3.org/2000/svg" xmlns:xlink="http://www.w3.org/1999/xlink" x="0px" y="0px"
	 viewBox="0 0 1000 1000" style="enable-background:new 0 0 1000 1000;" xml:space="preserve">
<style type="text/css">
	.st0{fill:#E5AF90;}
	.st1{opacity:0.1;clip-path:url(#SVGID_2_);fill:url(#XMLID_2_);enable-background:new    ;}
	.st2{fill:url(#XMLID_3_);}
	.st3{opacity:8.000000e-002;clip-path:url(#SVGID_4_);enable-background:new    ;}
	.st4{opacity:8.000000e-002;clip-path:url(#SVGID_6_);enable-background:new    ;}
	.st5{opacity:8.000000e-002;clip-path:url(#SVGID_8_);enable-background:new    ;}
	.st6{opacity:8.000000e-002;clip-path:url(#SVGID_10_);enable-background:new    ;}
	.st7{opacity:8.000000e-002;clip-path:url(#SVGID_12_);enable-background:new    ;}
	.st8{opacity:8.000000e-002;clip-path:url(#SVGID_14_);enable-background:new    ;}
	.st9{opacity:8.000000e-002;clip-path:url(#SVGID_16_);enable-background:new    ;}
	.st10{opacity:0.9;clip-path:url(#SVGID_18_);enable-background:new    ;}
	.st11{opacity:0.2;}
	.st12{fill:#FFFFFF;}
	.st13{fill:url(#XMLID_4_);}
	.st14{opacity:0.11;fill:#3C2415;enable-background:new    ;}
	.st15{opacity:0.1;fill:#3C2415;enable-background:new    ;}
	.st16{opacity:0.12;fill:#3C2415;enable-background:new    ;}
	.st17{opacity:0.2;fill:url(#XMLID_5_);enable-background:new    ;}
	.st18{fill:#EAB498;}
	.st19{fill:#CC9C80;}
	.st20{fill:#F7C4AB;}
	.st21{opacity:0.1;clip-path:url(#SVGID_20_);fill:url(#XMLID_6_);enable-background:new    ;}
	.st22{fill:#CC926E;}
	.st23{opacity:0.3;fill:url(#XMLID_7_);enable-background:new    ;}
	.st24{opacity:0.3;fill:url(#XMLID_8_);enable-background:new    ;}
	.st25{display:none;}
</style>
<g id="Head">
	<g id="XMLID_465_">
		<g>
			<path id="XMLID_468_" class="st20" d="M671.9,229.8c3.5,1.5,7.1,2.8,11,8.1c20.6,27.3,29,53.9,29,53.9
				c9.2,29.7,13.3,55.8,15.3,70.2c5.3,37.9,8.1,68.8,4.3,84.6c-6.1,25.5-10.7,49-8.1,75.4c2.9,29.5-1.2,55.7-8.8,84.3
				c-8.2,30.7-15.6,60.6-32.3,87.9c-15.9,25.9-19.5,55.4-34.1,81.7c-15,27-47.9,36-77.1,36.6c-57.5,1.2-114.4-33.1-152.6-73.5
				c-21.5-22.8-35.9-40.9-40.1-47.5c-15.1-23.3-22.9-44-29.6-61.6c-3.2-8.4-8.4-23.1-13.3-41.9c-3.7-14.3-6.6-25.6-8.3-40.7
				c-3.3-29.9,3-32.4-1.4-55.8c-4.2-22.6-11.2-26.3-7.5-36.8c4.8-13.6,18-11.9,27.6-29.3c4.5-8.3,5.4-15.5,7-30
				c2.1-18.8,0.4-33.4-0.2-38.3c-2.1-16.7-5.2-17.4-5.9-33.1c-0.5-10.3-1.1-19,1.1-30c3.9-20.2,17.7-32.1,24.4-36.4
				c19.2-17,45.6-10.9,68.1-5.3c30.2,7.5,47.8,5.7,89,6.2c18.6,0.2,27.9,0.6,36.7-0.4C621.9,251.9,646.1,218.6,671.9,229.8z"/>
		</g>
		<g>
			<defs>
				<path id="SVGID_19_" d="M671.9,229.8c3.5,1.5,7.1,2.8,11,8.1c20.6,27.3,29,53.9,29,53.9c9.2,29.7,13.3,55.8,15.3,70.2
					c5.3,37.9,8.1,68.8,4.3,84.6c-6.1,25.5-10.7,49-8.1,75.4c2.9,29.5-1.2,55.7-8.8,84.3c-8.2,30.7-15.6,60.6-32.3,87.9
					c-15.9,25.9-19.5,55.4-34.1,81.7c-15,27-47.9,36-77.1,36.6c-57.5,1.2-114.4-33.1-152.6-73.5c-21.5-22.8-35.9-40.9-40.1-47.5
					c-15.1-23.3-22.9-44-29.6-61.6c-3.2-8.4-8.4-23.1-13.3-41.9c-3.7-14.3-6.6-25.6-8.3-40.7c-3.3-29.9,3-32.4-1.4-55.8
					c-4.2-22.6-11.2-26.3-7.5-36.8c4.8-13.6,18-11.9,27.6-29.3c4.5-8.3,5.4-15.5,7-30c2.1-18.8,0.4-33.4-0.2-38.3
					c-2.1-16.7-5.2-17.4-5.9-33.1c-0.5-10.3-1.1-19,1.1-30c3.9-20.2,17.7-32.1,24.4-36.4c19.2-17,45.6-10.9,68.1-5.3
					c30.2,7.5,47.8,5.7,89,6.2c18.6,0.2,27.9,0.6,36.7-0.4C621.9,251.9,646.1,218.6,671.9,229.8z"/>
			</defs>
			<clipPath id="SVGID_20_">
				<use xlink:href="#SVGID_19_"  style="overflow:visible;"/>
			</clipPath>
			
				<linearGradient id="XMLID_6_" gradientUnits="userSpaceOnUse" x1="495.5315" y1="776.3252" x2="525.0108" y2="652.7831" gradientTransform="matrix(1 0 0 -1 0 1000)">
				<stop  offset="0" style="stop-color:#3C2415"/>
				<stop  offset="1" style="stop-color:#46281A;stop-opacity:0.1"/>
			</linearGradient>
			<path id="XMLID_469_" class="st21" d="M687.6,211.9c-5.8,10-16.1,26.7-32,44.7C616,299.1,555.3,303.4,524,302.5
				c-24.5,0.4-30.2-2.1-77.3,12.9c-28.3,10.4-37.1,16.6-47,26.6c-27,26.9-44.1,61.2-52.2,78c-9.6-66.8-27-145.2-45.5-203.8"/>
		</g>
	</g>
</g>
</svg>