<?xml version="1.0" encoding="UTF-8" standalone="no"?>
<!-- Generator: Adobe Illustrator 19.0.0, SVG Export Plug-In . SVG Version: 6.00 Build 0)  -->

<svg
   version="1.1"
   id="Layer_1"
   x="0px"
   y="0px"
   viewBox="0 0 1000 1000"
   style="enable-background:new 0 0 1000 1000;"
   xml:space="preserve"
   sodipodi:docname="mark_hair.svg"
   inkscape:version="1.3 (0e150ed6c4, 2023-07-21)"
   xmlns:inkscape="http://www.inkscape.org/namespaces/inkscape"
   xmlns:sodipodi="http://sodipodi.sourceforge.net/DTD/sodipodi-0.dtd"
   xmlns="http://www.w3.org/2000/svg"
   xmlns:svg="http://www.w3.org/2000/svg"><defs
   id="defs4" /><sodipodi:namedview
   id="namedview4"
   pagecolor="#ffffff"
   bordercolor="#000000"
   borderopacity="0.25"
   inkscape:showpageshadow="2"
   inkscape:pageopacity="0.0"
   inkscape:pagecheckerboard="0"
   inkscape:deskcolor="#d1d1d1"
   inkscape:zoom="0.813"
   inkscape:cx="500"
   inkscape:cy="500"
   inkscape:window-width="1920"
   inkscape:window-height="1009"
   inkscape:window-x="2552"
   inkscape:window-y="479"
   inkscape:window-maximized="1"
   inkscape:current-layer="Layer_1" />&#10;<style
   type="text/css"
   id="style1">&#10;	.st0{fill:#E5AF90;}&#10;	.st1{opacity:0.1;clip-path:url(#SVGID_2_);fill:url(#XMLID_2_);enable-background:new    ;}&#10;	.st2{fill:url(#XMLID_3_);}&#10;	.st3{opacity:8.000000e-002;clip-path:url(#SVGID_4_);enable-background:new    ;}&#10;	.st4{opacity:8.000000e-002;clip-path:url(#SVGID_6_);enable-background:new    ;}&#10;	.st5{opacity:8.000000e-002;clip-path:url(#SVGID_8_);enable-background:new    ;}&#10;	.st6{opacity:8.000000e-002;clip-path:url(#SVGID_10_);enable-background:new    ;}&#10;	.st7{opacity:8.000000e-002;clip-path:url(#SVGID_12_);enable-background:new    ;}&#10;	.st8{opacity:8.000000e-002;clip-path:url(#SVGID_14_);enable-background:new    ;}&#10;	.st9{opacity:8.000000e-002;clip-path:url(#SVGID_16_);enable-background:new    ;}&#10;	.st10{opacity:0.9;clip-path:url(#SVGID_18_);enable-background:new    ;}&#10;	.st11{opacity:0.2;}&#10;	.st12{fill:#FFFFFF;}&#10;	.st13{fill:url(#XMLID_4_);}&#10;	.st14{opacity:0.11;fill:#3C2415;enable-background:new    ;}&#10;	.st15{opacity:0.1;fill:#3C2415;enable-background:new    ;}&#10;	.st16{opacity:0.12;fill:#3C2415;enable-background:new    ;}&#10;	.st17{opacity:0.2;fill:url(#XMLID_5_);enable-background:new    ;}&#10;	.st18{fill:#EAB498;}&#10;	.st19{fill:#CC9C80;}&#10;	.st20{fill:#F7C4AB;}&#10;	.st21{opacity:0.1;clip-path:url(#SVGID_20_);fill:url(#XMLID_6_);enable-background:new    ;}&#10;	.st22{fill:#CC926E;}&#10;	.st23{opacity:0.3;fill:url(#XMLID_7_);enable-background:new    ;}&#10;	.st24{opacity:0.3;fill:url(#XMLID_8_);enable-background:new    ;}&#10;	.st25{display:none;}&#10;</style>&#10;<g
   id="Hair">&#10;	&#10;		<radialGradient
   id="XMLID_4_"
   cx="529.52863"
   cy="575.50781"
   r="579.6437"
   gradientTransform="matrix(-0.0507949,-0.998746,-1.0007717,0.05091392,1132.3838,924.02867)"
   gradientUnits="userSpaceOnUse"
   fx="529.52863"
   fy="575.50781">&#10;		<stop
   offset="0.00045074"
   style="stop-color:#892E30"
   id="stop1" />&#10;		<stop
   offset="1"
   style="stop-color:#6B3B26"
   id="stop2" />&#10;	</radialGradient>&#10;	<path
   id="XMLID_519_"
   class="st13"
   d="m 728,368.5 c 0.3,-0.3 0.6,-0.5 0.7,-0.8 12.5,-25.7 2.3,-53.1 -4.5,-78.3 -5.7,-22.2 -3.8,-22.8 -7.7,-32.8 -4.7,-12.1 -12.9,-25.5 -27.5,-38.1 -0.6,-0.5 -0.8,-1.3 -0.5,-2.1 14.7,-30.9 7.6,-69.5 -17.8,-90.9 -13,-10 -24.6,-21.5 -39.6,-26.1 -0.8,-0.3 -1.5,0.7 -1,1.4 6.4,8.5 17.4,11.7 24,19.3 -11.2,-9.1 -23.3,-13.2 -36.2,-17.3 h -0.1 c -10.1,-2.4 -18.7,-2.4 -24.8,-1.8 -0.4,0 -0.8,0 -1.2,-0.2 -7,-3.7 -18.7,-8.6 -33.6,-8.8 -5.2,-0.1 -9.8,0.5 -13.9,1.2 -0.5,0.1 -1,0 -1.5,-0.3 -5.4,-3.4 -16.5,-8.2 -31,-8.3 -11.7,-0.6 -21.6,2.5 -29.5,6.2 -2.2,1 -1.5,4 0.8,3.3 4.5,-1.2 9.8,-1.9 18.8,-3.1 10.5,-1.4 20.7,2.5 20.6,3.9 -0.1,1.7 -15,-1 -35.1,2.1 -36.6,5.4 -51.6,23.5 -74.4,20.1 -2.2,-0.3 -7.6,-1.3 -14.7,0 -9,1.7 -13.5,5.9 -20.2,9.8 -13.5,7.8 -15.6,2.6 -32.1,9 -22.4,8.5 -41.7,26.7 -48.8,50.1 0,0.1 -0.1,0.2 -0.1,0.2 -3.6,5.5 -8.5,8.3 -7.6,10.5 v 0 c 0.5,1.3 0.3,2.8 -0.7,3.6 -10.6,8.6 -18.3,17 -23.7,23.6 0,0 -14.2,17.2 -27.2,47.5 -1.7,4 -4,9.7 -4.2,17.4 -0.1,4.4 0.5,8 1.1,10.7 0.2,0.8 0,1.6 -0.4,2.2 -5,7.8 -7.3,14.6 -8.4,19.2 -3.7,14.9 -0.9,28 2.1,41.9 1.4,6.4 1.3,4.4 4.9,18.1 5.3,20.4 7.9,30.7 8.4,37.7 1,15.7 -2.4,24.6 2.1,32.8 1,1.8 3.3,5.3 4.2,10.5 0.4,2.1 0.7,5.6 1,9 0.2,2.2 0.4,4 0.4,4.3 0.1,1.4 -0.1,4.3 -2.5,9.6 -1.4,3 2.5,5.6 4.8,3.3 1,-1.1 1.9,-2.1 2.6,-3.1 2,-2.7 3.1,-5.1 4.2,-4.9 1.7,0.4 2.3,7.1 0.7,13.3 -1.6,6.1 -4.7,8.7 -3.5,10.5 1.5,2.2 6.9,-1.3 10.5,1.4 2.5,1.9 2.4,5.4 2.8,10.5 0,0 0.2,3.3 2.8,18.8 0.6,3.9 3.7,20.5 15.8,31.6 4.8,5.7 15.8,8.3 12.4,14.2 -6.6,10.2 -3.2,23.4 -10,32.7 -2,3 -8,-0.3 -9.1,1.8 -0.8,1.5 1,2.3 2.4,3.2 0.7,0.4 0.5,1.5 -0.3,1.6 -6.8,1.6 -14.2,3.5 -10.1,14 0.7,1.3 -1.2,2.4 -3.3,3.3 -1.5,0.6 -2,2.4 -1.3,4.1 8.4,18.7 29,26.4 42.3,25.2 0.3,0 0.5,0.1 0.7,0.2 3.1,3.2 4.5,10.5 3.8,15.1 -0.6,3.2 -2.3,5.9 -1.5,6.8 0.7,0.7 2.7,-0.4 4,-0.6 0.6,-0.1 1.1,0.5 1,1.1 -0.3,1.6 -0.5,3.5 -0.2,5.7 1.2,7.9 8.9,13.7 14.8,15.8 3.9,1.3 5.7,0.7 9,2.8 2.1,1.4 3.6,3.1 4.6,4.7 0.4,0.7 1.4,0.5 1.6,-0.2 1.4,-5 2.5,-9.5 3.1,-13.4 1.4,-8.4 2,-12.6 1.7,-17.4 -1.8,-14.4 -2,-16.4 -2.1,-16.7 v -0.1 c -0.5,-2 -1.2,-6.7 0.1,-7.2 0.9,-0.4 2.1,1.6 2.9,1.2 1.4,-0.7 -0.5,-7.7 -1.3,-10.5 -1.1,-4 -1.6,-4.5 -2.2,-7.1 -0.9,-4.4 -0.7,-7.8 -0.6,-9.2 0.4,-5 0.2,-12.7 -2.8,-25.2 v -0.4 c 9.3,-42 152.46125,-40.43974 218.85178,-56.56975 C 664.84194,525.26088 692.96999,495.8909 728,368.5 Z"
   inkscape:label="XMLID_519_"
   sodipodi:nodetypes="ccccccccccccccccccccsccccccccssccccccccccccccccccccccccccccccccccccccccccccccccsccccccc"
   style="fill:url(#XMLID_4_)" />&#10;	<path
   id="XMLID_518_"
   class="st14"
   d="M630.2,145.8c-24.1-5.3-43.9,8.1-47.8,10.9C561.7,171,566,185.1,547.6,198   c-18.1,12.7-40.2,10.5-63.1,8.7c-20.6-1.7-37.1-6.8-47.8-10.9c12.7,8.2,40.6,23.3,76.1,20.7c9.2-0.7,24.7-1.9,41.3-10.9   c26.9-14.5,30.2-35.1,54.4-39.1c3.6-0.6,14.8-2.3,26.1,3.3c9.6,4.8,15,12.6,17.4,16.3c8.9,13.4,7.8,24.9,10.9,25   c3.5,0.1,10.1-14.2,7.6-28.3C667.1,164,648.3,149.7,630.2,145.8z" />&#10;	<path
   id="XMLID_517_"
   class="st15"
   d="M553.5,151c-19.9,15.4-22.7,30.3-37,34.7c-8.8,2.7-22.6,1.7-44.1-15.6   c19.9,11.5,32.4,10.6,40,7.8c15.1-5.5,17-20.7,33.7-32.7c14.7-10.5,31.5-11.9,42.8-11.7C579.4,136.2,566.3,141.1,553.5,151z" />&#10;	<path
   id="XMLID_516_"
   class="st15"
   d="M332.3,294.5c-10.2,31.9-7,53.5-2.2,67.4c4.2,12,10.8,21.4,8.7,34.8   c-2.2,14.1-12.5,24.2-20.7,30.4c4.1-5.9,9-14.9,9.8-26.1c1-14.2-5.1-24.6-7.6-30.4C314.3,356.8,312.5,334,332.3,294.5z" />&#10;	<path
   id="XMLID_515_"
   class="st16"
   d="M317.9,194.9c7.7-21.3,16.7-30.2,23.7-34.3c9.2-5.3,12.8-2.7,23.8-7.4   c13.2-5.2,12.4-10.9,24.9-14.4c8-2.2,10.7-0.5,22.6-1.6c12-1.1,21.6-3.9,27.9-6.2c-9.3,10-18.6,13.4-25.1,14.8   c-9.2,1.9-14.4-0.1-23.4,2.2c-12,3-10.2,9.7-22.4,15.2c-9,4.4-12.6,2.8-24.8,8.2C332.9,177.7,323.7,187.2,317.9,194.9z" />&#10;	&#10;		<linearGradient
   id="XMLID_5_"
   gradientUnits="userSpaceOnUse"
   x1="10.9724"
   y1="498.2829"
   x2="507.0539"
   y2="618.5305"
   gradientTransform="matrix(1 0 0 -1 0 1000)">&#10;		<stop
   offset="8.716377e-007"
   style="stop-color:#000000"
   id="stop3" />&#10;		<stop
   offset="1"
   style="stop-color:#000000;stop-opacity:0"
   id="stop4" />&#10;	</linearGradient>&#10;	<path
   id="XMLID_514_"
   class="st17"
   d="m 728,368.5 c 0.3,-0.3 0.6,-0.5 0.7,-0.8 12.5,-25.7 2.3,-53.1 -4.5,-78.3 -5.7,-22.2 -3.8,-22.8 -7.7,-32.8 -4.7,-12.1 -12.9,-25.5 -27.5,-38.1 -0.6,-0.5 -0.8,-1.3 -0.5,-2.1 14.7,-30.9 7.6,-69.5 -17.8,-90.9 -13,-10 -24.6,-21.5 -39.6,-26.1 -0.8,-0.3 -1.5,0.7 -1,1.4 6.4,8.5 17.4,11.7 24,19.3 -11.2,-9.1 -23.3,-13.2 -36.2,-17.3 h -0.1 c -10.1,-2.4 -18.7,-2.4 -24.8,-1.8 -0.4,0 -0.8,0 -1.2,-0.2 -7,-3.7 -18.7,-8.6 -33.6,-8.8 -5.2,-0.1 -9.8,0.5 -13.9,1.2 -0.5,0.1 -1,0 -1.5,-0.3 -5.4,-3.4 -16.5,-8.2 -31,-8.3 -11.7,-0.6 -21.6,2.5 -29.5,6.2 -2.2,1 -1.5,4 0.8,3.3 4.5,-1.2 9.8,-1.9 18.8,-3.1 10.5,-1.4 20.7,2.5 20.6,3.9 -0.1,1.7 -15,-1 -35.1,2.1 -36.6,5.4 -51.6,23.5 -74.4,20.1 -2.2,-0.3 -7.6,-1.3 -14.7,0 -9,1.7 -13.5,5.9 -20.2,9.8 -13.5,7.8 -15.6,2.6 -32.1,9 -22.4,8.5 -41.7,26.7 -48.8,50.1 0,0.1 -0.1,0.2 -0.1,0.2 -3.6,5.5 -8.5,8.3 -7.6,10.5 v 0 c 0.5,1.3 0.3,2.8 -0.7,3.6 -10.6,8.6 -18.3,17 -23.7,23.6 0,0 -14.2,17.2 -27.2,47.5 -1.7,4 -4,9.7 -4.2,17.4 -0.1,4.4 0.5,8 1.1,10.7 0.2,0.8 0,1.6 -0.4,2.2 -5,7.8 -7.3,14.6 -8.4,19.2 -3.7,14.9 -0.9,28 2.1,41.9 1.4,6.4 1.3,4.4 4.9,18.1 5.3,20.4 7.9,30.7 8.4,37.7 1,15.7 -2.4,24.6 2.1,32.8 1,1.8 3.3,5.3 4.2,10.5 0.4,2.1 0.7,5.6 1,9 0.2,2.2 0.4,4 0.4,4.3 0.1,1.4 -0.1,4.3 -2.5,9.6 -1.4,3 2.5,5.6 4.8,3.3 1,-1.1 1.9,-2.1 2.6,-3.1 2,-2.7 3.1,-5.1 4.2,-4.9 1.7,0.4 2.3,7.1 0.7,13.3 -1.6,6.1 -4.7,8.7 -3.5,10.5 1.5,2.2 6.9,-1.3 10.5,1.4 2.5,1.9 2.4,5.4 2.8,10.5 0,0 0.2,3.3 2.8,18.8 0.6,3.9 3.7,20.5 15.8,31.6 4.8,5.7 15.8,8.3 12.4,14.2 -6.6,10.2 -3.2,23.4 -10,32.7 -2,3 -8,-0.3 -9.1,1.8 -0.8,1.5 1,2.3 2.4,3.2 0.7,0.4 0.5,1.5 -0.3,1.6 -6.8,1.6 -14.2,3.5 -10.1,14 0.7,1.3 -1.2,2.4 -3.3,3.3 -1.5,0.6 -2,2.4 -1.3,4.1 8.4,18.7 29,26.4 42.3,25.2 0.3,0 0.5,0.1 0.7,0.2 3.1,3.2 4.5,10.5 3.8,15.1 -0.6,3.2 -2.3,5.9 -1.5,6.8 0.7,0.7 2.7,-0.4 4,-0.6 0.6,-0.1 1.1,0.5 1,1.1 -0.3,1.6 -0.5,3.5 -0.2,5.7 1.2,7.9 8.9,13.7 14.8,15.8 3.9,1.3 5.7,0.7 9,2.8 2.1,1.4 3.6,3.1 4.6,4.7 0.4,0.7 1.4,0.5 1.6,-0.2 1.4,-5 2.5,-9.5 3.1,-13.4 1.4,-8.4 2,-12.6 1.7,-17.4 -1.8,-14.4 -2,-16.4 -2.1,-16.7 v -0.1 c -0.5,-2 -1.2,-6.7 0.1,-7.2 0.9,-0.4 2.1,1.6 2.9,1.2 1.4,-0.7 -0.5,-7.7 -1.3,-10.5 -1.1,-4 -1.6,-4.5 -2.2,-7.1 -0.9,-4.4 -0.7,-7.8 -0.6,-9.2 0.4,-5 0.2,-12.7 -2.8,-25.2 v -0.4 c 9.3,-42 309.90283,-60.11993 323.40283,-75.01993 C 753.40283,444.08007 694.2,406.1 728,368.5 Z"
   sodipodi:nodetypes="ccccccccccccccccccccsccccccccssccccccccccccccccccccccccccccccccccccccccccccccccsccccccc" />&#10;</g>&#10;</svg>
