<?xml version="1.0" encoding="utf-8"?>
<!-- Generator: Adobe Illustrator 19.0.0, SVG Export Plug-In . SVG Version: 6.00 Build 0)  -->
<svg version="1.1" id="Layer_1" xmlns="http://www.w3.org/2000/svg" xmlns:xlink="http://www.w3.org/1999/xlink" x="0px" y="0px"
	 viewBox="0 0 1000 1000" style="enable-background:new 0 0 1000 1000;" xml:space="preserve">
<style type="text/css">
	.st0{fill:#E5AF90;}
	.st1{opacity:0.1;clip-path:url(#SVGID_2_);fill:url(#XMLID_2_);enable-background:new    ;}
	.st2{fill:url(#XMLID_3_);}
	.st3{opacity:8.000000e-002;clip-path:url(#SVGID_4_);enable-background:new    ;}
	.st4{opacity:8.000000e-002;clip-path:url(#SVGID_6_);enable-background:new    ;}
	.st5{opacity:8.000000e-002;clip-path:url(#SVGID_8_);enable-background:new    ;}
	.st6{opacity:8.000000e-002;clip-path:url(#SVGID_10_);enable-background:new    ;}
	.st7{opacity:8.000000e-002;clip-path:url(#SVGID_12_);enable-background:new    ;}
	.st8{opacity:8.000000e-002;clip-path:url(#SVGID_14_);enable-background:new    ;}
	.st9{opacity:8.000000e-002;clip-path:url(#SVGID_16_);enable-background:new    ;}
	.st10{opacity:0.9;clip-path:url(#SVGID_18_);enable-background:new    ;}
	.st11{opacity:0.2;}
	.st12{fill:#FFFFFF;}
	.st13{fill:url(#XMLID_4_);}
	.st14{opacity:0.11;fill:#3C2415;enable-background:new    ;}
	.st15{opacity:0.1;fill:#3C2415;enable-background:new    ;}
	.st16{opacity:0.12;fill:#3C2415;enable-background:new    ;}
	.st17{opacity:0.2;fill:url(#XMLID_5_);enable-background:new    ;}
	.st18{fill:#EAB498;}
	.st19{fill:#CC9C80;}
	.st20{fill:#F7C4AB;}
	.st21{opacity:0.1;clip-path:url(#SVGID_20_);fill:url(#XMLID_6_);enable-background:new    ;}
	.st22{fill:#CC926E;}
	.st23{opacity:0.3;fill:url(#XMLID_7_);enable-background:new    ;}
	.st24{opacity:0.3;fill:url(#XMLID_8_);enable-background:new    ;}
	.st25{display:none;}
</style>
<g id="Eyebrows">
	<path id="XMLID_431_" class="st22" d="M635.1,450.5c-1.5-1.1-1.4-3.4,0.2-4.4c5.2-3.4,12.2-7.6,20.7-11.6
		c25.5-11.9,46.8-14.1,51.6-14.5c7.1-0.6,15.9-0.9,26,0.1c1,0.1,1.9,0.8,2.3,1.8c0.5,1.3,0.9,3,1,5.1c0,2.2-0.4,4.1-0.9,5.5
		c-0.4,1.1-1.5,1.9-2.7,1.8c-5.1-0.2-11.4-0.3-18.6,0.1c-13.9,0.7-23.9,1.3-35.2,5.2c-10.6,3.7-29.6,12.7-37.2,12.8
		C641.1,452.5,638,452.6,635.1,450.5C635.2,450.5,635.1,450.5,635.1,450.5z"/>
	<path id="XMLID_432_" class="st22" d="M556.5,452c0.7-1.5-0.2-3.3-0.5-4.1c-2.1-4.5-7-6.4-8.7-7c-36.2-14.4-77.6-15.4-77.6-15.4
		s-22.1-2-47.4,4.5c-1.6,0.4-3.3,1.5-6.8,3.7c-1.4,0.9-2.5,1.4-2.9,2.8c-0.4,1.7-0.6,3.9,0,6.3c0.6,2.6,1.9,4.7,3.2,6.2
		c1.4,1.6,3.3,1.4,4.2,1.4c1.4,0,2.6-0.3,3.1-0.5c0.1-0.1,0.2-0.1,0.3-0.1c15.9-6.4,37-7.4,37-7.4c29.4-1.7,59.5,4.5,68.8,7.5
		c5,1.6,10.2,2.3,15,3.6c0.4,0.1,3,0.9,6.2,0.8C552.3,454.1,555.6,454,556.5,452z"/>
</g>
</svg>