<?xml version="1.0" encoding="utf-8"?>
<!-- Generator: Adobe Illustrator 19.0.0, SVG Export Plug-In . SVG Version: 6.00 Build 0)  -->
<svg version="1.1" id="Layer_1" xmlns="http://www.w3.org/2000/svg" xmlns:xlink="http://www.w3.org/1999/xlink" x="0px" y="0px"
	 viewBox="0 0 1000 1000" style="enable-background:new 0 0 1000 1000;" xml:space="preserve">
<style type="text/css">
	.st0{fill:#E5AF90;}
	.st1{opacity:0.1;clip-path:url(#SVGID_2_);fill:url(#XMLID_2_);enable-background:new    ;}
	.st2{fill:url(#XMLID_3_);}
	.st3{opacity:8.000000e-002;clip-path:url(#SVGID_4_);enable-background:new    ;}
	.st4{opacity:8.000000e-002;clip-path:url(#SVGID_6_);enable-background:new    ;}
	.st5{opacity:8.000000e-002;clip-path:url(#SVGID_8_);enable-background:new    ;}
	.st6{opacity:8.000000e-002;clip-path:url(#SVGID_10_);enable-background:new    ;}
	.st7{opacity:8.000000e-002;clip-path:url(#SVGID_12_);enable-background:new    ;}
	.st8{opacity:8.000000e-002;clip-path:url(#SVGID_14_);enable-background:new    ;}
	.st9{opacity:8.000000e-002;clip-path:url(#SVGID_16_);enable-background:new    ;}
	.st10{opacity:0.9;clip-path:url(#SVGID_18_);enable-background:new    ;}
	.st11{opacity:0.2;}
	.st12{fill:#FFFFFF;}
	.st13{fill:url(#XMLID_4_);}
	.st14{opacity:0.11;fill:#3C2415;enable-background:new    ;}
	.st15{opacity:0.1;fill:#3C2415;enable-background:new    ;}
	.st16{opacity:0.12;fill:#3C2415;enable-background:new    ;}
	.st17{opacity:0.2;fill:url(#XMLID_5_);enable-background:new    ;}
	.st18{fill:#EAB498;}
	.st19{fill:#CC9C80;}
	.st20{fill:#F7C4AB;}
	.st21{opacity:0.1;clip-path:url(#SVGID_20_);fill:url(#XMLID_6_);enable-background:new    ;}
	.st22{fill:#CC926E;}
	.st23{opacity:0.3;fill:url(#XMLID_7_);enable-background:new    ;}
	.st24{opacity:0.3;fill:url(#XMLID_8_);enable-background:new    ;}
	.st25{display:none;}
</style>
<g id="Shirt">
	<g id="XMLID_439_">
		<g>
			
				<linearGradient id="XMLID_3_" gradientUnits="userSpaceOnUse" x1="462.7871" y1="-27.2587" x2="308.2427" y2="324.9418" gradientTransform="matrix(1 0 0 -1 0 1000)">
				<stop  offset="0" style="stop-color:#4E3F3C"/>
				<stop  offset="1" style="stop-color:#362B29"/>
			</linearGradient>
			<path id="XMLID_422_" class="st2" d="M324.1,762.2c-11.8,4-21.1,6.7-27.4,8.3c-8.9,2.3-14,3.4-17.7,8c-3.6,4.4-2,7-5.5,11.6
				c-3.5,4.5-8.1,6.1-17.9,8.4c-12.6,3-19,4-23.1,4.2c-13.9,0.7-33.8,8.9-73,27.1c-15,6.5-13.7,6.1-18,8.4
				c-23.1,10.8-32.1,10.2-46.2,20.8c-8.8,6.6-6.1,7.4-14.4,12.8c-12.5,8-19,6.3-35,14.7c-9.2,4.8-8.7,6.2-21.3,14.9
				c-11.7,8.1-22.2,14.2-29.4,18.2c-0.2,6.4-0.5,15.7-0.8,26.8c-0.4,16.9-0.8,33.9-0.8,48.3c0,15,0.6,36.2,3,62.3
				c317.4-4.1,627-13.5,936.5-22.9c-9.9-48.2-24.9-85.6-37-110.9c-20.6-43.1-38.9-64.3-45.7-71.8c-9.2-10.2-21.4-23.5-41.3-35.9
				c-8.6-5.4-31-19.1-62-25c-12.6-2.4-20.4-2.4-34.8-7.6c-13.7-5-17.6-9.2-29.4-14.1c-9.3-3.9-23.6-8.3-43.5-8.7
				c-3.9,23.8-3.9,42.8-3.3,55.5c1.6,30.1,7.7,41.7,3.3,66.3c-1.2,6.7-4.1,21.8-14.1,38.1c-8,12.9-19.2,21.8-41.3,39.1
				c-20.1,15-29.9,21.5-39.2,22.2c-3.6,0.2-15.3,1.4-47.8-14.6c-10.8-6.4-27.8-16.9-60.7-38.8c-17.7-16.1-27.4-29-50.2-48.2
				c-24.4-33.3-8.4-11.5-41.4-57.6c-7.9-8.7-17.2-18.8-20.7-34.8C321.9,777.1,322.9,768.1,324.1,762.2z"/>
		</g>
		<g>
			<defs>
				<path id="SVGID_3_" d="M324.1,762.2c-11.8,4-21.1,6.7-27.4,8.3c-8.9,2.3-14,3.4-17.7,8c-3.6,4.4-2,7-5.5,11.6
					c-3.5,4.5-8.1,6.1-17.9,8.4c-12.6,3-19,4-23.1,4.2c-13.9,0.7-33.8,8.9-73,27.1c-15,6.5-13.7,6.1-18,8.4
					c-23.1,10.8-32.1,10.2-46.2,20.8c-8.8,6.6-6.1,7.4-14.4,12.8c-12.5,8-19,6.3-35,14.7c-9.2,4.8-8.7,6.2-21.3,14.9
					c-11.7,8.1-22.2,14.2-29.4,18.2c-0.2,6.4-0.5,15.7-0.8,26.8c-0.4,16.9-0.8,33.9-0.8,48.3c0,15,0.6,36.2,3,62.3
					c317.4-4.1,627-13.5,936.5-22.9c-9.9-48.2-24.9-85.6-37-110.9c-20.6-43.1-38.9-64.3-45.7-71.8c-9.2-10.2-21.4-23.5-41.3-35.9
					c-8.6-5.4-31-19.1-62-25c-12.6-2.4-20.4-2.4-34.8-7.6c-13.7-5-17.6-9.2-29.4-14.1c-9.3-3.9-23.6-8.3-43.5-8.7
					c-3.9,23.8-3.9,42.8-3.3,55.5c1.6,30.1,7.7,41.7,3.3,66.3c-1.2,6.7-4.1,21.8-14.1,38.1c-8,12.9-19.2,21.8-41.3,39.1
					c-20.1,15-29.9,21.5-39.2,22.2c-3.6,0.2-15.3,1.4-47.8-14.6c-10.8-6.4-27.8-16.9-60.7-38.8c-17.7-16.1-27.4-29-50.2-48.2
					c-24.4-33.3-8.4-11.5-41.4-57.6c-7.9-8.7-17.2-18.8-20.7-34.8C321.9,777.1,322.9,768.1,324.1,762.2z"/>
			</defs>
			<clipPath id="SVGID_4_">
				<use xlink:href="#SVGID_3_"  style="overflow:visible;"/>
			</clipPath>
			<path id="XMLID_490_" class="st3" d="M885.8,958.1c0-0.1,0-0.2,0-0.3c0.8-14,1.1-28.2-0.8-42c-5.3-16.4-11.3-31.3-16-45.4
				c-0.3-0.9,1.6-1,2.2-0.1c3.3,4.8,6.7,9.7,10.4,14.7c8.7,11.6,14.1,19.4,16.3,23.6c5.7,11,10.5,28.3,14.9,52.3
				c0.1,0.3,0,0.7-0.1,1c-6.2,14.5-13.3,28.8-20.9,42.6c-0.5,0.9-2.3,0.7-2.5-0.3c-1-8.3-1.7-17.3-2.4-26.7
				C886.5,970.7,886.1,964.2,885.8,958.1z"/>
		</g>
		<g>
			<defs>
				<path id="SVGID_5_" d="M324.1,762.2c-11.8,4-21.1,6.7-27.4,8.3c-8.9,2.3-14,3.4-17.7,8c-3.6,4.4-2,7-5.5,11.6
					c-3.5,4.5-8.1,6.1-17.9,8.4c-12.6,3-19,4-23.1,4.2c-13.9,0.7-33.8,8.9-73,27.1c-15,6.5-13.7,6.1-18,8.4
					c-23.1,10.8-32.1,10.2-46.2,20.8c-8.8,6.6-6.1,7.4-14.4,12.8c-12.5,8-19,6.3-35,14.7c-9.2,4.8-8.7,6.2-21.3,14.9
					c-11.7,8.1-22.2,14.2-29.4,18.2c-0.2,6.4-0.5,15.7-0.8,26.8c-0.4,16.9-0.8,33.9-0.8,48.3c0,15,0.6,36.2,3,62.3
					c317.4-4.1,627-13.5,936.5-22.9c-9.9-48.2-24.9-85.6-37-110.9c-20.6-43.1-38.9-64.3-45.7-71.8c-9.2-10.2-21.4-23.5-41.3-35.9
					c-8.6-5.4-31-19.1-62-25c-12.6-2.4-20.4-2.4-34.8-7.6c-13.7-5-17.6-9.2-29.4-14.1c-9.3-3.9-23.6-8.3-43.5-8.7
					c-3.9,23.8-3.9,42.8-3.3,55.5c1.6,30.1,7.7,41.7,3.3,66.3c-1.2,6.7-4.1,21.8-14.1,38.1c-8,12.9-19.2,21.8-41.3,39.1
					c-20.1,15-29.9,21.5-39.2,22.2c-3.6,0.2-15.3,1.4-47.8-14.6c-10.8-6.4-27.8-16.9-60.7-38.8c-17.7-16.1-27.4-29-50.2-48.2
					c-24.4-33.3-8.4-11.5-41.4-57.6c-7.9-8.7-17.2-18.8-20.7-34.8C321.9,777.1,322.9,768.1,324.1,762.2z"/>
			</defs>
			<clipPath id="SVGID_6_">
				<use xlink:href="#SVGID_5_"  style="overflow:visible;"/>
			</clipPath>
			<path id="XMLID_488_" class="st4" d="M741.9,795.1c0.1,0,0.3,0.1,0.4,0.1c31.4,16,38,30.3,61.5,47.8c8.5,5.7,17.3,11.1,25.4,16.5
				c4.3,2.8,8.7,5.6,13.2,8.4c0.1,0.1,0.2,0.2,0.3,0.3c2.3,3.2,3.7,6.3,4.4,9.3c3.2,16.1-10.3,28.2,0.4,49.5c2,4,4.5,8.2,7.8,12.6
				l0.1,0.1c1.6,3,3.2,5.9,4.6,8.9c4.2,8.9,7.1,17.7,7.7,26.3c0,0.3,0.1,0.6,0.1,0.9c0.1,1.3-1.8,1.8-2.2,0.5v-0.1
				c-3.9-10.2-9.8-20.6-16.6-31.2c-2.2-3.5-4.7-7-7.1-10.6l-0.1-0.1c-2.8-2.9-4.9-5.9-6.5-8.9c-0.1-0.2-0.1-0.3-0.1-0.5
				c-0.6-12-2.1-23.7-5.4-34.9c-1.3-3.7-2.7-7.2-4.3-10.7c0-0.1,0-0.1-0.1-0.2c-0.7-2.7-1.9-5.3-3.4-8c0,0,0-0.1-0.1-0.1
				c-2.3-3.3-4.9-6.5-7.9-9.5c-3-3.1-6.2-6.1-9.7-9c-14.7-11.8-29.4-21.9-42-31c-0.2-0.2-0.5-0.2-0.8-0.2c-7.3,1.1-2.5,5.1-7.6,6.6
				c-0.5,0.1-1,0-1.2-0.4c-7.9-10.4-8.3-20.1-29.2-33c-1-0.6-0.5-2.3,0.8-2.1c2,0.3,4.1,0.7,6.6,1.2
				C734.5,794.2,738.1,794.7,741.9,795.1z"/>
		</g>
		<g>
			<defs>
				<path id="SVGID_7_" d="M324.1,762.2c-11.8,4-21.1,6.7-27.4,8.3c-8.9,2.3-14,3.4-17.7,8c-3.6,4.4-2,7-5.5,11.6
					c-3.5,4.5-8.1,6.1-17.9,8.4c-12.6,3-19,4-23.1,4.2c-13.9,0.7-33.8,8.9-73,27.1c-15,6.5-13.7,6.1-18,8.4
					c-23.1,10.8-32.1,10.2-46.2,20.8c-8.8,6.6-6.1,7.4-14.4,12.8c-12.5,8-19,6.3-35,14.7c-9.2,4.8-8.7,6.2-21.3,14.9
					c-11.7,8.1-22.2,14.2-29.4,18.2c-0.2,6.4-0.5,15.7-0.8,26.8c-0.4,16.9-0.8,33.9-0.8,48.3c0,15,0.6,36.2,3,62.3
					c317.4-4.1,627-13.5,936.5-22.9c-9.9-48.2-24.9-85.6-37-110.9c-20.6-43.1-38.9-64.3-45.7-71.8c-9.2-10.2-21.4-23.5-41.3-35.9
					c-8.6-5.4-31-19.1-62-25c-12.6-2.4-20.4-2.4-34.8-7.6c-13.7-5-17.6-9.2-29.4-14.1c-9.3-3.9-23.6-8.3-43.5-8.7
					c-3.9,23.8-3.9,42.8-3.3,55.5c1.6,30.1,7.7,41.7,3.3,66.3c-1.2,6.7-4.1,21.8-14.1,38.1c-8,12.9-19.2,21.8-41.3,39.1
					c-20.1,15-29.9,21.5-39.2,22.2c-3.6,0.2-15.3,1.4-47.8-14.6c-10.8-6.4-27.8-16.9-60.7-38.8c-17.7-16.1-27.4-29-50.2-48.2
					c-24.4-33.3-8.4-11.5-41.4-57.6c-7.9-8.7-17.2-18.8-20.7-34.8C321.9,777.1,322.9,768.1,324.1,762.2z"/>
			</defs>
			<clipPath id="SVGID_8_">
				<use xlink:href="#SVGID_7_"  style="overflow:visible;"/>
			</clipPath>
			<path id="XMLID_485_" class="st5" d="M152.9,805.9c-1.2-0.9,1.6-1.8,3.5-1.1c8.4,2.9,28.2,7.8,47.7,19.7c0.1,0,0.1,0.1,0.2,0.1
				c0.3,0.2,1.5,1.2,3.3,2.8c0,0,0.1,0,0.1,0.1c13.1,13.2,24.6,26.5,36.8,40.1c1.4,1.7,2.8,3.6,4.5,5.3c11.9,12.4,23.4,27.9,39.7,39
				c0,0,0.1,0,0.1,0.1c1.8,2,3.5,4,5.1,6c0.1,0.1,0.2,0.2,0.3,0.3c0.7,0.8,0,3-0.7,2.4c-0.2-0.1-0.3-0.2-0.5-0.4
				c-1.9-1.4-3.9-3.1-5.9-4.8c-0.1,0-0.1-0.1-0.2-0.1c-9.9-1.8-23.4-7.6-37.3-25.9c-3.9-4.7-7.4-9.5-10.5-14.2
				c-0.1-0.2-0.4-0.3-0.6-0.3c-3-0.3-5.5-1.6-7.8-0.9c-0.1,0-0.1,0-0.2,0.1c-0.3,0.1-1.3,0.6-2.3,1.5c-4.6,4.3,1,23,1.7,25.3
				c0,0.1,0.1,0.2,0.1,0.3c6.6,10.6,13.7,22,21.2,33.1c5.8,8.7,11.2,16.1,16.4,22.4c1.7,2.1,3.2,4.1,4.3,6c4.2,7.7,7,12,6.8,12.2
				c-0.1,0.1-2-2.9-5.4-8.3c-1.2-1.8-2.8-3.7-4.8-5.7c-1.6-1.6-3.4-3.1-5.4-4.6c-2.1-1.5-4.2-2.9-6.5-4.5
				c-12.5-9.4-23.6-22.9-32.9-37.8c-2.1-3-3.6-6-5-8.9c-0.1-0.1-0.1-0.3-0.1-0.4c-2.7-31.6-7.3-52.3-27.9-67.7
				c-1.9-1.6-2.2-4.1-1.1-6.2c0-0.1,0-0.1,0.1-0.2c0.1-1.1,0.2-2.7-0.2-4.6c-0.5-1.9-1.6-4-4.3-5.9c-3.8-2.7-8.2-3.6-13-5.1
				C166.5,813.4,159.4,810.6,152.9,805.9z"/>
		</g>
		<g>
			<defs>
				<path id="SVGID_9_" d="M324.1,762.2c-11.8,4-21.1,6.7-27.4,8.3c-8.9,2.3-14,3.4-17.7,8c-3.6,4.4-2,7-5.5,11.6
					c-3.5,4.5-8.1,6.1-17.9,8.4c-12.6,3-19,4-23.1,4.2c-13.9,0.7-33.8,8.9-73,27.1c-15,6.5-13.7,6.1-18,8.4
					c-23.1,10.8-32.1,10.2-46.2,20.8c-8.8,6.6-6.1,7.4-14.4,12.8c-12.5,8-19,6.3-35,14.7c-9.2,4.8-8.7,6.2-21.3,14.9
					c-11.7,8.1-22.2,14.2-29.4,18.2c-0.2,6.4-0.5,15.7-0.8,26.8c-0.4,16.9-0.8,33.9-0.8,48.3c0,15,0.6,36.2,3,62.3
					c317.4-4.1,627-13.5,936.5-22.9c-9.9-48.2-24.9-85.6-37-110.9c-20.6-43.1-38.9-64.3-45.7-71.8c-9.2-10.2-21.4-23.5-41.3-35.9
					c-8.6-5.4-31-19.1-62-25c-12.6-2.4-20.4-2.4-34.8-7.6c-13.7-5-17.6-9.2-29.4-14.1c-9.3-3.9-23.6-8.3-43.5-8.7
					c-3.9,23.8-3.9,42.8-3.3,55.5c1.6,30.1,7.7,41.7,3.3,66.3c-1.2,6.7-4.1,21.8-14.1,38.1c-8,12.9-19.2,21.8-41.3,39.1
					c-20.1,15-29.9,21.5-39.2,22.2c-3.6,0.2-15.3,1.4-47.8-14.6c-10.8-6.4-27.8-16.9-60.7-38.8c-17.7-16.1-27.4-29-50.2-48.2
					c-24.4-33.3-8.4-11.5-41.4-57.6c-7.9-8.7-17.2-18.8-20.7-34.8C321.9,777.1,322.9,768.1,324.1,762.2z"/>
			</defs>
			<clipPath id="SVGID_10_">
				<use xlink:href="#SVGID_9_"  style="overflow:visible;"/>
			</clipPath>
			<path id="XMLID_484_" class="st6" d="M65.8,930.9c32.1-17.2,68.3-26.3,86.7-16.1c0.1,0.1,0.2,0.1,0.3,0.2
				c2.8,2.6,5.5,5.2,8.2,7.9l0.1,0.1c17.2,22.1,32.1,42.8,46.3,61.8c1,1.4-0.6,3.3-1.8,2.2c-14.2-13.2-28.5-29.4-45.8-45.4l-0.1-0.1
				c-3.1-2.4-6.4-4.6-9.8-6.6c-16.7-9-42.3-8.8-69.5-5.7C70.7,930.8,65.1,932.1,65.8,930.9z"/>
		</g>
		<g>
			<defs>
				<path id="SVGID_11_" d="M324.1,762.2c-11.8,4-21.1,6.7-27.4,8.3c-8.9,2.3-14,3.4-17.7,8c-3.6,4.4-2,7-5.5,11.6
					c-3.5,4.5-8.1,6.1-17.9,8.4c-12.6,3-19,4-23.1,4.2c-13.9,0.7-33.8,8.9-73,27.1c-15,6.5-13.7,6.1-18,8.4
					c-23.1,10.8-32.1,10.2-46.2,20.8c-8.8,6.6-6.1,7.4-14.4,12.8c-12.5,8-19,6.3-35,14.7c-9.2,4.8-8.7,6.2-21.3,14.9
					c-11.7,8.1-22.2,14.2-29.4,18.2c-0.2,6.4-0.5,15.7-0.8,26.8c-0.4,16.9-0.8,33.9-0.8,48.3c0,15,0.6,36.2,3,62.3
					c317.4-4.1,627-13.5,936.5-22.9c-9.9-48.2-24.9-85.6-37-110.9c-20.6-43.1-38.9-64.3-45.7-71.8c-9.2-10.2-21.4-23.5-41.3-35.9
					c-8.6-5.4-31-19.1-62-25c-12.6-2.4-20.4-2.4-34.8-7.6c-13.7-5-17.6-9.2-29.4-14.1c-9.3-3.9-23.6-8.3-43.5-8.7
					c-3.9,23.8-3.9,42.8-3.3,55.5c1.6,30.1,7.7,41.7,3.3,66.3c-1.2,6.7-4.1,21.8-14.1,38.1c-8,12.9-19.2,21.8-41.3,39.1
					c-20.1,15-29.9,21.5-39.2,22.2c-3.6,0.2-15.3,1.4-47.8-14.6c-10.8-6.4-27.8-16.9-60.7-38.8c-17.7-16.1-27.4-29-50.2-48.2
					c-24.4-33.3-8.4-11.5-41.4-57.6c-7.9-8.7-17.2-18.8-20.7-34.8C321.9,777.1,322.9,768.1,324.1,762.2z"/>
			</defs>
			<clipPath id="SVGID_12_">
				<use xlink:href="#SVGID_11_"  style="overflow:visible;"/>
			</clipPath>
			<path id="XMLID_470_" class="st7" d="M749.6,915.6c-1.6-3.2-3.7-6.1-5.8-8.6c-4.9-6-10.3-10.3-13.7-14.1c-0.9-1,0.6-2.5,2.2-2
				c14.9,3.9,29.2,19.7,45.1,40c3.3,4.6,6.4,9.2,9.4,13.6c0.2,0.3,0.3,0.6,0.5,0.8c7.3,18.7,6.9,39.9,23.6,50.8
				c0.2,0.2,0.5,0.3,0.6,0.6c2.5,2.9,4.5,5.8,5.6,9.2v0.1c1.6,3.7,2.8,7.4,3.3,11.4c0.4,3.1,0.4,6.2,0,9.6
				c-0.5,3.3-1.4,6.7-2.9,10.4v0.1c-2.9,5.2-0.2,9,5.3,11c1.6,0.6,1.2,2.6-0.6,3.1c-1.6,0.5-3.1,1-4.6,1.6
				c-19.4,7.6-37.9,21.8-54.5,17.1c-5.9-1.5-8.1-4-8-7.1s2.6-6.9,6.1-10.9c3.4-4.2,8-8,12.2-11.8c2.1-1.9,4.2-3.7,6-5.6
				c4.7-4.2,7.3-12.3,6.3-18c0-0.1-0.1-0.3-0.1-0.4C778,999,749,990,747,966.4c0-0.1,0-0.2,0-0.4c-0.8-13.3,12.7-19.3,8.4-35.6
				C753.8,925.1,751.9,920.4,749.6,915.6z"/>
		</g>
		<g>
			<defs>
				<path id="SVGID_13_" d="M324.1,762.2c-11.8,4-21.1,6.7-27.4,8.3c-8.9,2.3-14,3.4-17.7,8c-3.6,4.4-2,7-5.5,11.6
					c-3.5,4.5-8.1,6.1-17.9,8.4c-12.6,3-19,4-23.1,4.2c-13.9,0.7-33.8,8.9-73,27.1c-15,6.5-13.7,6.1-18,8.4
					c-23.1,10.8-32.1,10.2-46.2,20.8c-8.8,6.6-6.1,7.4-14.4,12.8c-12.5,8-19,6.3-35,14.7c-9.2,4.8-8.7,6.2-21.3,14.9
					c-11.7,8.1-22.2,14.2-29.4,18.2c-0.2,6.4-0.5,15.7-0.8,26.8c-0.4,16.9-0.8,33.9-0.8,48.3c0,15,0.6,36.2,3,62.3
					c317.4-4.1,627-13.5,936.5-22.9c-9.9-48.2-24.9-85.6-37-110.9c-20.6-43.1-38.9-64.3-45.7-71.8c-9.2-10.2-21.4-23.5-41.3-35.9
					c-8.6-5.4-31-19.1-62-25c-12.6-2.4-20.4-2.4-34.8-7.6c-13.7-5-17.6-9.2-29.4-14.1c-9.3-3.9-23.6-8.3-43.5-8.7
					c-3.9,23.8-3.9,42.8-3.3,55.5c1.6,30.1,7.7,41.7,3.3,66.3c-1.2,6.7-4.1,21.8-14.1,38.1c-8,12.9-19.2,21.8-41.3,39.1
					c-20.1,15-29.9,21.5-39.2,22.2c-3.6,0.2-15.3,1.4-47.8-14.6c-10.8-6.4-27.8-16.9-60.7-38.8c-17.7-16.1-27.4-29-50.2-48.2
					c-24.4-33.3-8.4-11.5-41.4-57.6c-7.9-8.7-17.2-18.8-20.7-34.8C321.9,777.1,322.9,768.1,324.1,762.2z"/>
			</defs>
			<clipPath id="SVGID_14_">
				<use xlink:href="#SVGID_13_"  style="overflow:visible;"/>
			</clipPath>
			<path id="XMLID_463_" class="st8" d="M3.8,908.6c4.4-3.9,9.3-6.4,20.3-13.1c16.3-9.8,25.8-16.4,39.2-21.5
				c8-3.1,22.1-7.4,39.6-7.6c0.2,0,0.4-0.1,0.6-0.1c8.7-4.3,18.3-8.5,28.1-12c10.6-3.5,20-5.6,28.4-6.7c1.5-0.2,2.2,1.6,0.8,2.3
				c-5.2,2.4-10.9,5.1-17.2,8.2c-2.9,1.5-5.8,3-8.7,4.5c-1.2,0.6-0.6,2.3,0.8,2.2c11.4-0.9,24.1-0.2,36.4,3.6
				c10.8,3,19.4,7.1,26.2,11.3c1.4,0.9,0.1,2.8-1.4,2c-8.4-4.3-16.6-7.2-23.9-9c-15.9-3.8-28.6-5.3-47.8,1.1
				c-15.4,5.4-29.2,13.3-39.2,19.6c-1.2,0.8-0.3,2.5,1.1,2.1c11.1-2.7,25.3-5.2,40-5.5c3.9-0.1,7.4,0,10.7,0.3
				c1.7,0.1,1.6,2.4-0.1,2.4c-8,0.2-15.2,1.6-21.1,3.1c-12.7,3.1-28.2,8.5-42.3,13.6c-17.2,6.4-22.1,9.1-32,11.6
				c-4.6,1.2-9.1,1.9-16.4,4c-5,1.5-9.2,2.9-12.1,3.9c-0.6,0.2-0.9,0.7-0.8,1.3c0.3,2.2,1,4.9,2.6,7.2c2.8,4.2,7.7,4.6,10.3,4.7H26
				c0.9,0,13.1-0.6,28.8,0.7c9.4,0.8,25.9,2.3,23.1,14.4c-2.9,12.6-44.7,44.9-70.2,64.8c-0.9,0.7-2.2,0.1-2.2-0.9
				c-0.6-12.4-8.3-17.3-12.6-22.1c-9.1-10.3-15.4-19.1-15.3-24.3c0.3-10.2,0.4-19.7,0.1-27.2c0-0.2,0-0.4,0.1-0.6
				C-15.7,935.7-7.7,918.8,3.8,908.6z"/>
		</g>
		<g>
			<defs>
				<path id="SVGID_15_" d="M324.1,762.2c-11.8,4-21.1,6.7-27.4,8.3c-8.9,2.3-14,3.4-17.7,8c-3.6,4.4-2,7-5.5,11.6
					c-3.5,4.5-8.1,6.1-17.9,8.4c-12.6,3-19,4-23.1,4.2c-13.9,0.7-33.8,8.9-73,27.1c-15,6.5-13.7,6.1-18,8.4
					c-23.1,10.8-32.1,10.2-46.2,20.8c-8.8,6.6-6.1,7.4-14.4,12.8c-12.5,8-19,6.3-35,14.7c-9.2,4.8-8.7,6.2-21.3,14.9
					c-11.7,8.1-22.2,14.2-29.4,18.2c-0.2,6.4-0.5,15.7-0.8,26.8c-0.4,16.9-0.8,33.9-0.8,48.3c0,15,0.6,36.2,3,62.3
					c317.4-4.1,627-13.5,936.5-22.9c-9.9-48.2-24.9-85.6-37-110.9c-20.6-43.1-38.9-64.3-45.7-71.8c-9.2-10.2-21.4-23.5-41.3-35.9
					c-8.6-5.4-31-19.1-62-25c-12.6-2.4-20.4-2.4-34.8-7.6c-13.7-5-17.6-9.2-29.4-14.1c-9.3-3.9-23.6-8.3-43.5-8.7
					c-3.9,23.8-3.9,42.8-3.3,55.5c1.6,30.1,7.7,41.7,3.3,66.3c-1.2,6.7-4.1,21.8-14.1,38.1c-8,12.9-19.2,21.8-41.3,39.1
					c-20.1,15-29.9,21.5-39.2,22.2c-3.6,0.2-15.3,1.4-47.8-14.6c-10.8-6.4-27.8-16.9-60.7-38.8c-17.7-16.1-27.4-29-50.2-48.2
					c-24.4-33.3-8.4-11.5-41.4-57.6c-7.9-8.7-17.2-18.8-20.7-34.8C321.9,777.1,322.9,768.1,324.1,762.2z"/>
			</defs>
			<clipPath id="SVGID_16_">
				<use xlink:href="#SVGID_15_"  style="overflow:visible;"/>
			</clipPath>
			<path id="XMLID_451_" class="st9" d="M248.9,800.3c-0.3,0.9,5.7,0.7,11.7,6.2c0.1,0.1,0.1,0.1,0.2,0.2c5.4,8.4,4.4,15.5,7.3,24.5
				c3.5,11,8.1,7.4,17,16.9c0,0,0,0.1,0.1,0.1c6.7,8.5,12.1,22.8,33,49.1c18.5,23.6,13.4,21.9,29.1,38l0.1,0.1
				c14.7,19.6,16.9,19,22.2,42c0,0,0,0,0,0.1c2.4,13.9,1.9,14.8,5.5,28.2c0,0.1,0,0.1,0.1,0.2c4.5,9.3,7.9,13.6,15.6,22.9
				c6.5,7.8,11.7,13.3,12.3,13c0.8-0.3-6.9-10.4-12.3-19c-3.2-5.1-5.2-8.9-5.6-10.3c-4.1-12.2-6.1-17-7.5-27.2v-0.1
				c-1.5-18.8,1.2-20.5-2.2-31.3v-0.1c-3.1-7.4-4.5-6.7-11.2-16.3l-0.1-0.1c-8.4-9.1-15.2-16.7-22.3-26.3
				c-29.2-36.2-25.9-34-31.8-47c-18.6-41.7-33.9-44.1-43-59.7c-0.4-0.7-3.2-3.6-7.9-4.6h-0.1C254.1,799,249.1,799.5,248.9,800.3z"/>
		</g>
		<g>
			<defs>
				<path id="SVGID_17_" d="M324.1,762.2c-11.8,4-21.1,6.7-27.4,8.3c-8.9,2.3-14,3.4-17.7,8c-3.6,4.4-2,7-5.5,11.6
					c-3.5,4.5-8.1,6.1-17.9,8.4c-12.6,3-19,4-23.1,4.2c-13.9,0.7-33.8,8.9-73,27.1c-15,6.5-13.7,6.1-18,8.4
					c-23.1,10.8-32.1,10.2-46.2,20.8c-8.8,6.6-6.1,7.4-14.4,12.8c-12.5,8-19,6.3-35,14.7c-9.2,4.8-8.7,6.2-21.3,14.9
					c-11.7,8.1-22.2,14.2-29.4,18.2c-0.2,6.4-0.5,15.7-0.8,26.8c-0.4,16.9-0.8,33.9-0.8,48.3c0,15,0.6,36.2,3,62.3
					c317.4-4.1,627-13.5,936.5-22.9c-9.9-48.2-24.9-85.6-37-110.9c-20.6-43.1-38.9-64.3-45.7-71.8c-9.2-10.2-21.4-23.5-41.3-35.9
					c-8.6-5.4-31-19.1-62-25c-12.6-2.4-20.4-2.4-34.8-7.6c-13.7-5-17.6-9.2-29.4-14.1c-9.3-3.9-23.6-8.3-43.5-8.7
					c-3.9,23.8-3.9,42.8-3.3,55.5c1.6,30.1,7.7,41.7,3.3,66.3c-1.2,6.7-4.1,21.8-14.1,38.1c-8,12.9-19.2,21.8-41.3,39.1
					c-20.1,15-29.9,21.5-39.2,22.2c-3.6,0.2-15.3,1.4-47.8-14.6c-10.8-6.4-27.8-16.9-60.7-38.8c-17.7-16.1-27.4-29-50.2-48.2
					c-24.4-33.3-8.4-11.5-41.4-57.6c-7.9-8.7-17.2-18.8-20.7-34.8C321.9,777.1,322.9,768.1,324.1,762.2z"/>
			</defs>
			<clipPath id="SVGID_18_">
				<use xlink:href="#SVGID_17_"  style="overflow:visible;"/>
			</clipPath>
			<path id="XMLID_447_" class="st10" d="M793.1,791.2c-28.2-11.2-40.9,0.8-72.4-13.9c-24.9-11.1-31.6-23-56.2-30.8
				c-18.3-5.8-33.2-5.1-43.3-3.2c1.9,4.2,3.8,8.4,5.6,12.6c-3.5,4.3-7.2,8.6-11.1,12.9c1.5,6.5,3.4,16.1,5.5,27.8
				c1.5,28.3,0.5,43.2-1.6,55.2c-5,25.3-9.6,48.3-27.4,66c-22.2,21.7-50,22.4-54,22.5c-18.8,0.1-33.2-7.4-54.3-17.8
				c-6.6-3.3-25.4-12.9-69.3-53.5c-23.2-22.7-38.1-42.2-50.5-65.9c-7.1-15.4-11-27.6-11.8-43.4c-1-14.5,0.3-26.2,1.3-33.6
				c-10.3,6.1-21.2,12.1-33.2,18.2c-1.5,4.4-3.5,10.4-5.1,17.6c-6.3,0.6-13.9,1.8-22.8,4.1c-28.9,7.1-46.6,18.8-70.1,30.6
				c-49.3,24.8-49.6,14.6-97.2,38.9c-11.7,6.4-31.1,19-69.5,43.2c-25.5,16-46.4,28.8-60.4,37.4c0,8,0,15.9,0,23.8
				c11.5-11,22.4-18.7,30.7-23.8c12.5-7.8,23.5-12.5,26.6-13.8c16.7-7.1,19.1-5.2,28.7-11.2c12.4-7.9,12.4-13.7,23.5-22.6
				c8.5-6.8,11.1-5.6,36.6-15.5c11.5-4.4,31-11.2,53.4-21.8c18.6-8.6,15.7-9.2,25.7-12.7c26-9.2,35-1.3,53.9-11.9
				c11.2-6.3,10.6-10.8,24.3-19.2c4.8-3,9.3-5.2,13.4-6.9c-1.1,13.7,1.9,23.7,8.2,40.4c1.9,5.1,8.4,18.9,28.1,47.8
				c3.3,4.9,13.6,17.8,33.8,39.5c21.7,24.2,34.2,35.6,53,48.6c30.5,21.2,45,32.4,60.2,40.3c5.5,2.8,24.5,13.3,48.1,10.4
				c9-1.4,27.7-5.8,48.1-23.3c11.6-9.9,19.7-19.2,31.7-31.9c11.5-11.5,23.1-23.7,31.5-43.4c6.1-21.4,4.7-39.9,2.3-59.5
				c-2.6-19.6-5.7-33.2-9.9-48.5c-3.1-11.7-6.2-22.5-9.1-32.2c7,0.5,16.1,1.9,26.5,5c19.8,6,24.2,13,42.4,19.9
				c18.8,7,20.1,1.6,49.2,8.1c21.7,4.9,38.5,11.9,48,16.3c12,5.6,27.9,14.3,44.9,27.6C829.9,811,808.5,797.4,793.1,791.2z"/>
		</g>
	</g>
	<g id="XMLID_441_" class="st11">
		<g id="XMLID_521_">
			<path id="XMLID_535_" class="st12" d="M-1.3,928.3l4.8-3.7c0,0,0.1,0,0.2,0s0,0.1,0,0.2l0,0L-1.3,928.3
				C-1.3,928.4-1.3,928.3-1.3,928.3L-1.3,928.3z"/>
			<path id="XMLID_534_" class="st12" d="M19,912.7l9.3-7c0.1-0.1,0.3-0.1,0.4,0.1c0.1,0.1,0.1,0.3-0.1,0.4l0,0l-9.4,7
				c-0.1,0.1-0.3,0.1-0.4-0.1C18.8,912.9,18.8,912.8,19,912.7z"/>
			<path id="XMLID_533_" class="st12" d="M44.1,894.3c0,0,0.6-0.4,1.6-1c0.9-0.6,2.2-1.3,3.6-1.9c1.3-0.6,2.7-1.2,3.7-1.6
				c1-0.4,1.7-0.6,1.7-0.6c0.2-0.1,0.5,0,0.6,0.3c0.1,0.2,0,0.5-0.3,0.6l0,0c0,0-0.7,0.2-1.7,0.6c-1,0.4-2.4,0.9-3.7,1.5
				c-2.6,1.2-5.1,2.8-5.1,2.8c-0.2,0.1-0.4,0.1-0.5-0.1C43.8,894.6,43.9,894.4,44.1,894.3L44.1,894.3z"/>
			<path id="XMLID_532_" class="st12" d="M73.8,885.9c0,0,0.7-0.2,1.7-0.5s2.4-0.8,3.7-1.5c1.3-0.6,2.5-1.3,3.4-2
				c0.9-0.6,1.4-1.1,1.4-1.1c0.2-0.1,0.4-0.1,0.5,0c0.1,0.2,0.1,0.4,0,0.5l0,0c0,0-0.6,0.5-1.5,1.1s-2.2,1.4-3.5,2s-2.7,1.2-3.8,1.5
				c-1.1,0.3-1.8,0.5-1.8,0.5l0,0c-0.2,0-0.4-0.1-0.5-0.3C73.5,886.2,73.6,886,73.8,885.9L73.8,885.9z"/>
			<path id="XMLID_531_" class="st12" d="M97,866.5c0,0,0.6-0.5,1.4-1.2c0.4-0.4,0.9-0.8,1.4-1.2c0.3-0.2,0.5-0.5,0.8-0.7
				s0.6-0.4,0.9-0.7c2.3-1.8,4.8-3.3,4.8-3.3c0.1-0.1,0.3,0,0.3,0.1c0.1,0.1,0,0.3-0.1,0.3c0,0-2.5,1.5-4.8,3.3
				c-0.3,0.2-0.6,0.5-0.8,0.7c-0.3,0.2-0.5,0.4-0.8,0.7c-0.5,0.5-1,0.9-1.4,1.2c-0.8,0.7-1.4,1.2-1.4,1.2c-0.1,0.1-0.3,0.1-0.4,0
				C96.9,866.8,96.9,866.6,97,866.5L97,866.5z"/>
			<path id="XMLID_530_" class="st12" d="M123.9,851.1c0,0,0.7-0.3,1.7-0.7s2.4-0.9,3.8-1.4c2.7-1,5.5-2.1,5.5-2.1
				c0.1,0,0.2,0,0.2,0.1s0,0.2-0.1,0.2l0,0c0,0-2.7,1-5.5,2c-1.4,0.5-2.7,1-3.8,1.4c-1,0.4-1.7,0.7-1.7,0.7c-0.1,0-0.2,0-0.2-0.1
				C123.8,851.2,123.8,851.1,123.9,851.1z"/>
			<path id="XMLID_529_" class="st12" d="M153.6,841.8c0,0,2.7-1,5.5-2c0.7-0.3,1.4-0.5,2-0.7c0.3-0.1,0.6-0.2,0.9-0.3
				c0.3-0.1,0.6-0.2,0.8-0.3c1-0.4,1.7-0.7,1.7-0.7c0.2-0.1,0.3,0,0.4,0.2s0,0.3-0.2,0.4l0,0c0,0-0.7,0.3-1.7,0.7
				c-0.3,0.1-0.5,0.2-0.8,0.3s-0.6,0.2-0.9,0.3c-0.6,0.2-1.3,0.5-2,0.7c-2.7,1-5.5,2-5.5,2c-0.1,0-0.3,0-0.3-0.2
				C153.4,842,153.4,841.8,153.6,841.8z"/>
			<path id="XMLID_528_" class="st12" d="M181.5,828.4c0,0,0.6-0.4,1.5-1s2.1-1.4,3.4-2.2c2.5-1.6,5.1-2.9,5.1-2.9
				c0.2-0.1,0.5,0,0.6,0.2s0,0.5-0.2,0.6l0,0c0,0-2.6,1.3-5.1,2.8c-1.2,0.8-2.5,1.6-3.4,2.2c-0.9,0.6-1.5,1-1.5,1
				c-0.2,0.1-0.4,0.1-0.6-0.1C181.2,828.8,181.3,828.5,181.5,828.4z"/>
			<path id="XMLID_527_" class="st12" d="M209.5,814.8l11.2-3.4c0.3-0.1,0.6,0.1,0.7,0.3s-0.1,0.6-0.3,0.7l0,0l-11.2,3.4
				c-0.3,0.1-0.5-0.1-0.6-0.3C209.1,815.2,209.2,814.9,209.5,814.8z"/>
			<path id="XMLID_526_" class="st12" d="M239.7,807l11.5-1.9c0.3,0,0.5,0.1,0.6,0.4s-0.1,0.5-0.4,0.6l-11.5,1.9
				c-0.3,0-0.6-0.1-0.6-0.4C239.2,807.4,239.4,807.1,239.7,807L239.7,807z"/>
			<path id="XMLID_525_" class="st12" d="M269.9,800.9c0,0,0.6-0.3,1.6-0.9c0.9-0.6,2.1-1.4,3.2-2.3c1.1-0.9,2.1-1.9,2.8-2.7
				c0.7-0.8,1.1-1.4,1.1-1.4c0.1-0.2,0.4-0.2,0.6-0.1c0.2,0.1,0.2,0.4,0.1,0.6l0,0c0,0-0.4,0.6-1.1,1.5s-1.8,1.9-2.9,2.9
				s-2.4,1.8-3.3,2.4c-0.9,0.6-1.6,0.9-1.6,0.9l0,0c-0.2,0.1-0.5,0-0.6-0.2C269.6,801.3,269.7,801,269.9,800.9L269.9,800.9z"/>
			<path id="XMLID_524_" class="st12" d="M292,779.6c0,0,0.6-0.4,1.6-0.8c1-0.5,2.3-1.1,3.7-1.6c2.7-1.1,5.6-1.9,5.6-1.9l0,0
				c0.1,0,0.3,0,0.3,0.2c0,0.1,0,0.3-0.2,0.3c0,0-2.8,0.8-5.5,1.9c-1.3,0.5-2.7,1.1-3.6,1.6c-1,0.5-1.6,0.8-1.6,0.8
				c-0.2,0.1-0.3,0-0.4-0.1C291.7,779.9,291.8,779.7,292,779.6L292,779.6L292,779.6z"/>
			<path id="XMLID_522_" class="st12" d="M321.8,771l6-0.8h0.1v0.1l-6,0.9c-0.1,0-0.1,0-0.1-0.1C321.7,771.1,321.8,771,321.8,771
				L321.8,771z"/>
		</g>
	</g>
	<g id="XMLID_442_" class="st11">
		<g id="XMLID_505_">
			<path id="XMLID_512_" class="st12" d="M643.6,767.8c0,0,3-0.5,6-0.7c1.5-0.1,3-0.2,4.2-0.2c1.1,0,1.9,0,1.9,0
				c0.1,0,0.3,0.1,0.3,0.3c0,0.1-0.1,0.3-0.3,0.3l0,0c0,0-3-0.2-6.1-0.1C646.6,767.5,643.5,767.9,643.6,767.8
				C643.5,767.9,643.5,767.9,643.6,767.8C643.5,767.8,643.5,767.8,643.6,767.8z"/>
			<path id="XMLID_511_" class="st12" d="M673.7,770.2c0,0,0.7,0.3,1.8,0.7s2.5,1,3.9,1.7c2.8,1.3,5.4,2.9,5.4,2.9l0,0
				c0.2,0.1,0.3,0.4,0.1,0.6c-0.1,0.2-0.4,0.3-0.6,0.1c0,0-2.6-1.6-5.3-2.9c-1.4-0.7-2.7-1.3-3.8-1.7c-1-0.4-1.8-0.7-1.8-0.7
				c-0.2-0.1-0.3-0.3-0.3-0.5C673.2,770.2,673.5,770.1,673.7,770.2L673.7,770.2z"/>
			<path id="XMLID_510_" class="st12" d="M700.3,784.9c0,0,0.7,0.3,1.7,0.7c1.1,0.4,2.5,0.9,3.9,1.4c2.9,0.9,5.8,1.7,5.8,1.7
				c0.1,0,0.1,0.1,0.1,0.2c0,0.1-0.1,0.1-0.2,0.1c0,0-3-0.7-5.9-1.6c-1.5-0.5-2.9-0.9-4-1.3c-1.1-0.4-1.8-0.7-1.8-0.7l0,0
				c-0.1-0.1-0.2-0.2-0.1-0.3C700,784.9,700.2,784.8,700.3,784.9L700.3,784.9z"/>
			<path id="XMLID_509_" class="st12" d="M729.6,792.8l11.9,2.5c0.2,0,0.3,0.2,0.3,0.4s-0.2,0.3-0.4,0.3l0,0l-11.9-2.7
				c-0.1,0-0.2-0.2-0.2-0.3C729.3,792.9,729.4,792.8,729.6,792.8z"/>
			<path id="XMLID_508_" class="st12" d="M759.2,799.5l11.8,2.8c0.3,0.1,0.5,0.4,0.4,0.6c-0.1,0.3-0.4,0.5-0.6,0.4l0,0l-11.8-2.9
				c-0.3-0.1-0.4-0.3-0.4-0.6C758.7,799.6,759,799.4,759.2,799.5z"/>
			<path id="XMLID_507_" class="st12" d="M788.5,808c0,0,0.2,0.1,0.5,0.2c0.2,0.1,0.3,0.1,0.5,0.2c0.2,0.1,0.5,0.2,0.7,0.3
				c1,0.5,2.4,1.2,3.8,1.8c2.7,1.3,5.5,2.7,5.5,2.7c0.2,0.1,0.3,0.3,0.2,0.5s-0.3,0.3-0.5,0.2c0,0-2.8-1.3-5.5-2.6
				c-1.4-0.6-2.8-1.3-3.8-1.8c-0.3-0.1-0.5-0.2-0.7-0.3s-0.4-0.2-0.6-0.2c-0.3-0.1-0.5-0.2-0.5-0.2c-0.2-0.1-0.4-0.4-0.3-0.6
				C787.9,808,788.2,807.9,788.5,808L788.5,808z"/>
			<path id="XMLID_506_" class="st12" d="M815.2,822.5l3.9,2.6c0,0,0,0,0,0.1c0,0,0,0-0.1,0l-4-2.5c-0.1,0-0.1-0.1,0-0.2
				C815.1,822.4,815.2,822.4,815.2,822.5L815.2,822.5z"/>
		</g>
	</g>
</g>
</svg>