<?xml version="1.0" encoding="utf-8"?>
<!-- Generator: Adobe Illustrator 19.0.0, SVG Export Plug-In . SVG Version: 6.00 Build 0)  -->
<svg version="1.1" id="Layer_1" xmlns="http://www.w3.org/2000/svg" xmlns:xlink="http://www.w3.org/1999/xlink" x="0px" y="0px"
	 viewBox="0 0 1000 1000" style="enable-background:new 0 0 1000 1000;" xml:space="preserve">
<style type="text/css">
	.st0{fill:#E5AF90;}
	.st1{opacity:0.1;clip-path:url(#SVGID_2_);fill:url(#XMLID_2_);enable-background:new    ;}
	.st2{fill:url(#XMLID_3_);}
	.st3{opacity:8.000000e-002;clip-path:url(#SVGID_4_);enable-background:new    ;}
	.st4{opacity:8.000000e-002;clip-path:url(#SVGID_6_);enable-background:new    ;}
	.st5{opacity:8.000000e-002;clip-path:url(#SVGID_8_);enable-background:new    ;}
	.st6{opacity:8.000000e-002;clip-path:url(#SVGID_10_);enable-background:new    ;}
	.st7{opacity:8.000000e-002;clip-path:url(#SVGID_12_);enable-background:new    ;}
	.st8{opacity:8.000000e-002;clip-path:url(#SVGID_14_);enable-background:new    ;}
	.st9{opacity:8.000000e-002;clip-path:url(#SVGID_16_);enable-background:new    ;}
	.st10{opacity:0.9;clip-path:url(#SVGID_18_);enable-background:new    ;}
	.st11{opacity:0.2;}
	.st12{fill:#FFFFFF;}
	.st13{fill:url(#XMLID_4_);}
	.st14{opacity:0.11;fill:#3C2415;enable-background:new    ;}
	.st15{opacity:0.1;fill:#3C2415;enable-background:new    ;}
	.st16{opacity:0.12;fill:#3C2415;enable-background:new    ;}
	.st17{opacity:0.2;fill:url(#XMLID_5_);enable-background:new    ;}
	.st18{fill:#EAB498;}
	.st19{fill:#CC9C80;}
	.st20{fill:#F7C4AB;}
	.st21{opacity:0.1;clip-path:url(#SVGID_20_);fill:url(#XMLID_6_);enable-background:new    ;}
	.st22{fill:#CC926E;}
	.st23{opacity:0.3;fill:url(#XMLID_7_);enable-background:new    ;}
	.st24{opacity:0.3;fill:url(#XMLID_8_);enable-background:new    ;}
	.st25{display:none;}
</style>
<g id="Neck">
	<g id="XMLID_421_">
		<g>
			<path id="XMLID_445_" class="st0" d="M338,573.3c5.6,33.5,8.4,62.4,9.9,85.3c3.5,52.6,0,73.1-12.4,90.2
				c-5.9,8.2-12.5,13.8-17.3,17.3c0,7.6,0.5,18.3,2.6,30.9c10.8,62.9,52,103.3,79.4,129.4c52.8,50.3,88.5,84.4,136.8,78.2
				c41.2-5.2,77.6-37.9,95.2-70.5c7.8-14.4,11.1-27.1,12.7-34.2c6-25.8,4.6-55.2-4.5-101.6c-5.1-46.1,3.3-85.5,10.3-111.5
				C546.5,649.1,442.2,611.2,338,573.3z"/>
		</g>
		<g>
			<defs>
				<path id="SVGID_1_" d="M338,573.3c5.6,33.5,8.4,62.4,9.9,85.3c3.5,52.6,0,73.1-12.4,90.2c-5.9,8.2-12.5,13.8-17.3,17.3
					c0,7.6,0.5,18.3,2.6,30.9c10.8,62.9,52,103.3,79.4,129.4c52.8,50.3,88.5,84.4,136.8,78.2c41.2-5.2,77.6-37.9,95.2-70.5
					c7.8-14.4,11.1-27.1,12.7-34.2c6-25.8,4.6-55.2-4.5-101.6c-5.1-46.1,3.3-85.5,10.3-111.5C546.5,649.1,442.2,611.2,338,573.3z"/>
			</defs>
			<clipPath id="SVGID_2_">
				<use xlink:href="#SVGID_1_"  style="overflow:visible;"/>
			</clipPath>
			
				<linearGradient id="XMLID_2_" gradientUnits="userSpaceOnUse" x1="524.9492" y1="381.005" x2="265.495" y2="149.1307" gradientTransform="matrix(1 0 0 -1 0 1000)">
				<stop  offset="0" style="stop-color:#3C2415"/>
				<stop  offset="1" style="stop-color:#46281A;stop-opacity:0.1"/>
			</linearGradient>
			<path id="XMLID_579_" class="st1" d="M631.4,786.2c-23.9,22.9-64.1,55.5-121.6,78.7c-82.3,33.1-155.6,29.1-192,24.5
				c-15.7-55.2-31.3-110.3-47-165.5c20.8-65.4,41.5-130.7,62.3-196.1C442.7,571.4,552.4,615,662,658.5
				C651.9,701.1,641.7,743.6,631.4,786.2z"/>
		</g>
	</g>
</g>
</svg>